<svg width="54" height="55" viewBox="0 0 54 55" fill="none" xmlns="http://www.w3.org/2000/svg">
<path d="M51.9688 6.06227H31.8546L16.7979 1.04365C16.6249 0.98545 16.4376 0.98545 16.2646 1.04365L1.07713 6.10615C0.909182 6.16208 0.763084 6.26942 0.659511 6.41297C0.555937 6.55652 0.500134 6.72901 0.5 6.90602V53.3123H2.1875V49.701L15.6875 45.2013V48.2498H17.375V45.2013L30.875 49.701V53.3123H32.5625V49.9373H51.125V53.3123H52.8125V6.90602C52.8125 6.68225 52.7236 6.46764 52.5654 6.3094C52.4071 6.15117 52.1925 6.06227 51.9688 6.06227ZM2.1875 12.576L8.09375 10.6076V41.736L2.1875 43.7045V12.576ZM9.78125 10.0448L15.6875 8.07631V39.2048L9.78125 41.1732V10.0448ZM32.5625 44.031V12.8123H41V44.031H32.5625ZM30.875 43.7045L24.9688 41.7352V10.6076L30.875 12.576V43.7045ZM23.2812 41.1732L17.375 39.2048V8.07631L23.2812 10.0448V41.1732ZM17.375 40.9826L30.875 45.4823V47.9224L17.375 43.4235V40.9826ZM32.5625 45.7185H51.125V48.2498H32.5625V45.7185ZM51.125 44.031H42.6875V12.8123H51.125V44.031ZM51.125 11.1248H32.5625V7.74977H51.125V11.1248ZM30.875 10.7982L17.375 6.29852V3.0138L30.875 7.51437V10.7982ZM15.6875 3.0138V6.29852L2.1875 10.7982V7.51437L15.6875 3.0138ZM2.1875 45.4823L15.6875 40.9826V43.4235L2.1875 47.9224V45.4823Z" fill="white"/>
</svg>
