<svg width="54" height="55" viewBox="0 0 54 55" fill="none" xmlns="http://www.w3.org/2000/svg">
<path d="M51.75 53.375H2.25C1.575 53.375 1.125 52.925 1.125 52.25V2.75C1.125 2.075 1.575 1.625 2.25 1.625H51.75C52.425 1.625 52.875 2.075 52.875 2.75V52.25C52.875 52.925 52.425 53.375 51.75 53.375ZM3.375 51.125H50.625V3.875H3.375V51.125Z" fill="white"/>
<path d="M27 52.7001C26.325 52.7001 25.875 52.2501 25.875 51.5751V3.42505C25.875 2.75005 26.325 2.30005 27 2.30005C27.675 2.30005 28.125 2.75005 28.125 3.42505V51.5751C28.125 52.2501 27.675 52.7001 27 52.7001Z" fill="white"/>
<path d="M51.0748 28.625H2.9248C2.2498 28.625 1.7998 28.175 1.7998 27.5C1.7998 26.825 2.2498 26.375 2.9248 26.375H51.0748C51.7498 26.375 52.1998 26.825 52.1998 27.5C52.1998 28.175 51.7498 28.625 51.0748 28.625Z" fill="white"/>
</svg>
