<svg width="54" height="55" viewBox="0 0 54 55" fill="none" xmlns="http://www.w3.org/2000/svg">
<path d="M11.8125 1.34375C11.5887 1.34375 11.3741 1.43264 11.2159 1.59088C11.0576 1.74911 10.9688 1.96372 10.9688 2.1875V52.8125C10.9688 53.0363 11.0576 53.2509 11.2159 53.4091C11.3741 53.5674 11.5887 53.6562 11.8125 53.6562H42.1875C42.4113 53.6562 42.6259 53.5674 42.7841 53.4091C42.9424 53.2509 43.0312 53.0363 43.0312 52.8125V2.1875C43.0312 1.96372 42.9424 1.74911 42.7841 1.59088C42.6259 1.43264 42.4113 1.34375 42.1875 1.34375H11.8125ZM12.6562 51.9688V3.03125H41.3438V6.40625H37.125C36.9012 6.40625 36.6866 6.49514 36.5284 6.65338C36.3701 6.81161 36.2812 7.02622 36.2812 7.25V10.625C36.2812 10.8488 36.3701 11.0634 36.5284 11.2216C36.6866 11.3799 36.9012 11.4688 37.125 11.4688H41.3438V43.5312H37.125C36.9012 43.5312 36.6866 43.6201 36.5284 43.7784C36.3701 43.9366 36.2812 44.1512 36.2812 44.375V47.75C36.2812 47.9738 36.3701 48.1884 36.5284 48.3466C36.6866 48.5049 36.9012 48.5938 37.125 48.5938H41.3438V51.9688H12.6562ZM41.3438 8.09375V9.78125H37.9688V8.09375H41.3438ZM41.3438 45.2188V46.9062H37.9688V45.2188H41.3438Z" fill="white"/>
<path d="M23.8682 12.5613L29.3515 7.07796L30.5445 8.27103L25.0612 13.7543L23.8682 12.5613Z" fill="white"/>
<path d="M23.8682 17.6229L29.3515 12.1396L30.5445 13.3327L25.0612 18.816L23.8682 17.6229Z" fill="white"/>
<path d="M14.3438 19.9062H16.0312V38.4688H14.3438V40.1562H19.4062V38.4688H17.7188V19.9062H19.4062V18.2188H14.3438V19.9062Z" fill="white"/>
<path d="M23.8652 41.6677L29.3486 36.1844L30.5416 37.3775L25.0583 42.8608L23.8652 41.6677Z" fill="white"/>
<path d="M23.8643 46.7294L29.3476 41.2461L30.5406 42.4391L25.0573 47.9224L23.8643 46.7294Z" fill="white"/>
</svg>
