<svg width="55" height="55" viewBox="0 0 55 55" fill="none" xmlns="http://www.w3.org/2000/svg">
<path d="M50.7643 4.92975C50.7643 4.91393 50.7643 4.89811 50.759 4.88229C50.7518 4.81794 50.7362 4.75482 50.7126 4.69455C50.6854 4.63334 50.65 4.5762 50.6071 4.52475L50.5765 4.48889C50.535 4.43982 50.4871 4.39654 50.4341 4.36021C50.3807 4.32656 50.3233 4.29964 50.2633 4.28006L50.219 4.26635C50.1553 4.2474 50.0893 4.23746 50.0228 4.23682H45.5351C45.3374 4.23689 45.1477 4.31541 45.0078 4.45514L31.4413 18.0195V4.97826C31.4413 4.96244 31.4413 4.94662 31.4413 4.9308C31.4413 4.91498 31.4413 4.89916 31.4361 4.88334C31.4289 4.819 31.4133 4.75588 31.3896 4.69561C31.3625 4.6344 31.327 4.57725 31.2842 4.5258L31.2546 4.48994C31.2125 4.4411 31.1643 4.39786 31.1112 4.36127C31.0579 4.32742 31.0005 4.30049 30.9403 4.28111L30.8961 4.2674C30.8324 4.24845 30.7663 4.23851 30.6999 4.23787H26.2069C26.0092 4.23794 25.8195 4.31646 25.6796 4.45619L4.45188 25.6776C4.4162 25.7134 4.38406 25.7526 4.3559 25.7946C4.34746 25.8083 4.34113 25.8242 4.3327 25.8379C4.31586 25.8649 4.30105 25.8931 4.2884 25.9222C4.27993 25.9443 4.27289 25.9668 4.2673 25.9897C4.25882 26.0132 4.25178 26.0372 4.24621 26.0615C4.23707 26.108 4.23213 26.1553 4.23145 26.2028V50.0219C4.23145 50.2199 4.31012 50.4098 4.45015 50.5499C4.59019 50.6899 4.78012 50.7686 4.97816 50.7686H28.793C28.8419 50.7684 28.8906 50.7635 28.9386 50.7538C28.9629 50.7484 28.9869 50.7413 29.0103 50.7327C29.0332 50.7271 29.0557 50.7201 29.0778 50.7116C29.107 50.699 29.1352 50.6842 29.1621 50.6673C29.1769 50.6589 29.1927 50.6526 29.2064 50.6441C29.2485 50.616 29.2877 50.5838 29.3235 50.5481L50.5502 29.3205C50.6899 29.1805 50.7684 28.9909 50.7685 28.7931V4.97826C50.7685 4.96244 50.7653 4.94662 50.7643 4.92975ZM45.8515 5.72603H48.2214L28.484 25.4603H26.1141L31.2198 20.3546L31.2262 20.3482L45.8515 5.72603ZM23.7832 25.6776C23.7476 25.7132 23.7158 25.7524 23.6883 25.7946C23.6787 25.809 23.6702 25.8242 23.663 25.84C23.6469 25.8665 23.6325 25.894 23.6198 25.9222C23.6113 25.945 23.6042 25.9682 23.5987 25.9919C23.59 26.0145 23.583 26.0378 23.5776 26.0615C23.5679 26.1097 23.563 26.1588 23.5628 26.2081V30.3836L10.2084 43.7422V26.5213L29.9468 6.78178V19.514L23.7832 25.6776ZM23.5628 32.4972V44.7969H11.2683L23.5628 32.4972ZM26.5159 5.72603H28.8911L9.15684 25.4603H6.78168L26.5159 5.72603ZM28.0452 49.2741H5.72594V26.9548H8.71387V45.5352C8.71331 45.634 8.73235 45.7319 8.76989 45.8232C8.80743 45.9146 8.86272 45.9976 8.93256 46.0675C9.00241 46.1373 9.08541 46.1926 9.17677 46.2301C9.26813 46.2677 9.36603 46.2867 9.4648 46.2862H24.3095C24.4078 46.2863 24.5051 46.267 24.5959 46.2295C24.6866 46.192 24.7691 46.1369 24.8386 46.0674C24.9081 45.998 24.9631 45.9155 25.0007 45.8247C25.0382 45.7339 25.0574 45.6366 25.0573 45.5384V30.6937V26.9548H28.0452V49.2741ZM29.5397 48.2194V26.5171L49.274 6.78178V28.483L29.5397 48.2194Z" fill="white"/>
</svg>
