<svg width="10" height="13" viewBox="0 0 10 13" fill="none" xmlns="http://www.w3.org/2000/svg">
  <path d="M5.16066 6.90824C5.68294 6.90824 6.18383 6.70077 6.55314 6.33146C6.92245 5.96215 7.12992 5.46126 7.12992 4.93898C7.12992 4.41671 6.92245 3.91582 6.55314 3.54651C6.18383 3.1772 5.68294 2.96973 5.16066 2.96973C4.63839 2.96973 4.1375 3.1772 3.76819 3.54651C3.39888 3.91582 3.19141 4.41671 3.19141 4.93898C3.19141 5.46126 3.39888 5.96215 3.76819 6.33146C4.1375 6.70077 4.63839 6.90824 5.16066 6.90824Z" stroke="white" stroke-miterlimit="10" stroke-linecap="round" />
  <path d="M5.16036 1C1.22184 1 0.565224 4.2819 1.22184 6.76963C1.79968 8.94934 3.53204 10.4389 4.6748 11.6604C4.73634 11.728 4.81131 11.7821 4.89493 11.819C4.97854 11.856 5.06894 11.875 5.16036 11.875C5.25177 11.875 5.34218 11.856 5.42579 11.819C5.5094 11.7821 5.58437 11.728 5.64591 11.6604C6.78808 10.4389 8.52103 8.94934 9.09887 6.76963C9.75549 4.2819 9.09887 1 5.16036 1Z" stroke="white" stroke-miterlimit="10" stroke-linecap="round" />
</svg>