<svg width="55" height="55" viewBox="0 0 55 55" fill="none" xmlns="http://www.w3.org/2000/svg">
<path d="M51.9688 24.125V6.40625H52.8125C53.0363 6.40625 53.2509 6.31736 53.4091 6.15912C53.5674 6.00089 53.6562 5.78628 53.6562 5.5625V2.1875C53.6562 1.96372 53.5674 1.74911 53.4091 1.59088C53.2509 1.43264 53.0363 1.34375 52.8125 1.34375H2.1875C1.96372 1.34375 1.74911 1.43264 1.59088 1.59088C1.43264 1.74911 1.34375 1.96372 1.34375 2.1875V5.5625C1.34375 5.78628 1.43264 6.00089 1.59088 6.15912C1.74911 6.31736 1.96372 6.40625 2.1875 6.40625H3.03125V24.125C3.03341 24.6467 3.1967 25.1549 3.49876 25.5802C3.80083 26.0055 4.22692 26.3271 4.71875 26.501V48.5938H2.1875C1.96372 48.5938 1.74911 48.6826 1.59088 48.8409C1.43264 48.9991 1.34375 49.2137 1.34375 49.4375V52.8125C1.34375 53.0363 1.43264 53.2509 1.59088 53.4091C1.74911 53.5674 1.96372 53.6562 2.1875 53.6562H52.8125C53.0363 53.6562 53.2509 53.5674 53.4091 53.4091C53.5674 53.2509 53.6562 53.0363 53.6562 52.8125V49.4375C53.6562 49.2137 53.5674 48.9991 53.4091 48.8409C53.2509 48.6826 53.0363 48.5938 52.8125 48.5938H50.2812V26.501C50.7731 26.3271 51.1992 26.0055 51.5012 25.5802C51.8033 25.1549 51.9666 24.6467 51.9688 24.125ZM49.4375 24.9688H5.5625C5.33872 24.9688 5.12411 24.8799 4.96588 24.7216C4.80765 24.5634 4.71875 24.3488 4.71875 24.125V23.2812H50.2812V24.125C50.2812 24.3488 50.1924 24.5634 50.0341 24.7216C49.8759 24.8799 49.6613 24.9688 49.4375 24.9688ZM9.78125 26.6562C58.3073 26.6562 -2.70997 26.6562 45.2188 26.6562V45.2188H9.78125V26.6562ZM4.71875 9.78125H50.2812V11.4688H4.71875V9.78125ZM4.71875 13.1562H50.2812V14.8438H4.71875V13.1562ZM4.71875 16.5312H50.2812V18.2188H4.71875V16.5312ZM4.71875 19.9062H50.2812V21.5938H4.71875V19.9062ZM3.03125 3.03125H51.9688V4.71875H3.03125V3.03125ZM50.2812 6.40625V8.09375H4.71875V6.40625H50.2812ZM51.9688 51.9688H3.03125V50.2812H51.9688V51.9688ZM6.40625 48.5938V26.6562H8.09375V46.0625C8.09375 46.2863 8.18264 46.5009 8.34088 46.6591C8.49911 46.8174 8.71372 46.9062 8.9375 46.9062H46.0625C46.2863 46.9062 46.5009 46.8174 46.6591 46.6591C46.8174 46.5009 46.9062 46.2863 46.9062 46.0625V26.6562H48.5938V48.5938H6.40625Z" fill="white"/>
</svg>
