<svg width="189" height="148" viewBox="0 0 189 148" fill="none" xmlns="http://www.w3.org/2000/svg">
  <path d="M0 59.6094H13.8925C18.2681 59.6094 21.248 60.1159 22.8381 61.1229C25.6413 62.9191 27.0429 65.7164 27.0429 69.5267C27.0429 73.337 25.871 75.7869 23.5212 77.4535C22.3493 78.2839 20.9418 78.8316 19.2987 79.1084C18.1503 79.3027 16.4425 79.3969 14.1634 79.3969H6.4015V90.0386H0V59.6035V59.6094ZM13.81 65.0333H6.39561V74.0201H14.1987C18.009 74.0201 19.9112 72.5243 19.9112 69.5267C19.9112 67.8542 19.4224 66.6823 18.4389 66.005C17.5143 65.3572 15.9655 65.0333 13.7983 65.0333H13.81Z" fill="white" />
  <path d="M30.8711 67.7012H40.7884C43.1205 67.7012 44.7518 68.1193 45.6764 68.9556C46.601 69.7918 47.0662 71.2523 47.0662 73.3371V77.0649H41.4362V74.1851C41.4362 73.2311 41.2419 72.6186 40.8591 72.3418C40.5411 72.1062 39.8697 71.9885 38.8509 71.9885H36.7779V90.0446H30.877V67.7071L30.8711 67.7012Z" fill="white" />
  <path d="M73.0251 78.8847C73.0251 82.3769 71.965 85.1743 69.8391 87.2708C67.7131 89.3673 64.8333 90.4156 61.2056 90.4156C57.5779 90.4156 54.6863 89.3614 52.5426 87.259C50.399 85.1566 49.3213 82.3651 49.3213 78.8847C49.3213 75.4042 50.3931 72.5892 52.5426 70.4809C54.6863 68.3667 57.5779 67.3125 61.2056 67.3125C64.8333 67.3125 67.6777 68.3667 69.8155 70.4809C71.9533 72.5951 73.0251 75.3924 73.0251 78.8847ZM55.5108 78.8847C55.5108 81.0401 56.0114 82.7008 57.0125 83.8728C58.0137 85.0447 59.3976 85.6336 61.1644 85.6336C62.9311 85.6336 64.3033 85.0447 65.3162 83.861C66.3291 82.6773 66.8356 81.0224 66.8356 78.8788C66.8356 76.7351 66.3291 75.0803 65.3221 73.9083C64.315 72.7364 62.9252 72.1475 61.1585 72.1475C59.3917 72.1475 58.0431 72.7246 57.0361 73.8848C56.0172 75.0862 55.5049 76.7469 55.5049 78.8729L55.5108 78.8847Z" fill="white" />
  <path d="M78.6552 72.1532H74.4092V67.7011H78.6552V65.4043C78.6552 63.1429 79.0734 61.6058 79.9155 60.8108C80.7577 60.0098 82.3713 59.6094 84.7623 59.6094H90.3511V63.9143H87.5537C85.6928 63.9143 84.7564 64.5857 84.7564 65.9225V67.7011H90.3452V72.1532H84.7564V90.0445H78.6494V72.1532H78.6552Z" fill="white" />
  <path d="M119.608 65.0333H103.79C100.504 65.0333 98.8609 66.3584 98.8609 69.0085C98.8609 71.2169 100.21 72.3182 102.901 72.3182H111.369C114.821 72.3182 117.3 72.966 118.813 74.2616C120.327 75.5572 121.081 77.7833 121.081 80.9281C121.081 84.0729 120.221 86.4168 118.495 87.8655C116.77 89.3143 114.084 90.0386 110.439 90.0386H93.4017V84.6147H109.426C111.181 84.6147 112.43 84.3733 113.172 83.8904C113.984 83.3662 114.391 82.4593 114.391 81.1755C114.391 79.8916 114.02 78.9376 113.272 78.4017C112.594 77.907 111.458 77.6538 109.856 77.6538H102.3C98.8079 77.6538 96.2462 76.9588 94.6207 75.5631C92.9895 74.1674 92.1768 71.9531 92.1768 68.9143C92.1768 65.6458 93.0483 63.2607 94.7856 61.7708C96.4994 60.322 99.1907 59.5977 102.86 59.5977H119.608V65.0216V65.0333Z" fill="white" />
  <path d="M123.065 67.7011H127.229V59.6035H133.13V67.7011H139.361V72.1533H133.13V81.1813C133.13 82.7832 133.383 83.908 133.896 84.5558C134.461 85.2448 135.474 85.5923 136.94 85.5923H139.361V90.0445H133.978C129.479 90.0445 127.229 87.7124 127.229 83.0482V72.1592H123.065V67.707V67.7011Z" fill="white" />
  <path d="M152.777 90.0445C145.28 90.0445 141.534 86.3226 141.534 78.8846C141.534 71.4466 145.28 67.707 152.777 67.707H161.386V72.3653H153.583C151.581 72.3653 150.209 72.6186 149.461 73.1309C148.589 73.7081 148.13 74.8565 148.071 76.5702H161.386V81.2285H148.071C148.124 82.9835 148.578 84.1318 149.42 84.6854C150.126 85.1566 151.499 85.3921 153.542 85.3921H161.386V90.0504H152.777V90.0445Z" fill="white" />
  <path d="M165.32 59.6094H171.221V78.4311L180.703 67.7069H188.176L177.823 78.6372L188.176 90.0445H180.249L171.221 79.1967V90.0445H165.32V59.6094Z" fill="white" />
  <path d="M94.1439 148L38.8213 115.509V104.408H43.5326V112.812L94.1615 142.546L145.438 112.806V104.408H150.15V115.521L94.1439 148Z" fill="#00C7C2" />
  <path d="M150.15 43.5914H145.438V35.1876L94.8094 5.45334L43.5326 35.1935V43.5914H38.8213V32.4786L94.827 0L150.15 32.4904V43.5914Z" fill="#00C7C2" />
</svg>